<?xml version="1.0" standalone="no"?>
<!DOCTYPE svg PUBLIC "-//W3C//DTD SVG 20010904//EN"
 "http://www.w3.org/TR/2001/REC-SVG-20010904/DTD/svg10.dtd">
<svg version="1.0" xmlns="http://www.w3.org/2000/svg"
 width="225.000000pt" height="224.000000pt" viewBox="0 0 225.000000 224.000000"
 preserveAspectRatio="xMidYMid meet">

<g transform="translate(0.000000,224.000000) scale(0.100000,-0.100000)"
fill="#000000" stroke="none">
<path d="M260 1385 l0 -595 841 0 840 0 -3 593 -3 592 -230 1 c-126 0 -196 -1
-155 -3 51 -3 70 -7 60 -13 -12 -8 -11 -10 5 -10 35 -1 65 -35 65 -73 0 -27 7
-41 31 -61 17 -14 35 -26 40 -26 5 0 9 -16 9 -35 0 -19 5 -35 10 -35 6 0 10
-9 10 -20 0 -11 -7 -20 -15 -20 -22 0 -18 -16 9 -33 13 -9 26 -25 29 -37 5
-18 -2 -25 -35 -40 -42 -18 -41 -23 5 -34 34 -8 28 -20 -23 -46 -30 -15 -37
-24 -33 -40 3 -12 14 -20 27 -20 16 -1 14 -4 -11 -15 -18 -8 -33 -19 -33 -24
0 -6 -21 -21 -47 -33 -56 -27 -110 -93 -118 -146 -4 -20 -9 -44 -12 -52 -4 -8
-5 -22 -4 -30 1 -10 -1 -11 -6 -4 -4 6 -16 13 -26 17 -16 6 -16 8 0 26 9 11
20 18 25 15 4 -3 8 1 8 8 0 8 -8 14 -19 14 -11 0 -17 -5 -14 -13 3 -7 0 -13
-6 -13 -6 0 -11 5 -11 10 0 13 -11 13 -30 0 -13 -9 -13 -11 0 -20 8 -5 10 -10
5 -10 -6 0 -16 5 -23 12 -9 9 -12 5 -13 -18 0 -25 -2 -26 -9 -9 -16 37 -12 55
14 55 13 0 34 8 46 18 l21 17 -20 47 c-11 25 -17 49 -14 52 10 10 53 7 53 -3
0 -14 32 -18 55 -7 11 5 27 12 35 16 8 4 20 17 26 28 8 16 13 19 22 10 9 -9
12 -8 12 5 0 9 -4 17 -9 17 -5 0 -11 10 -13 23 -2 12 -7 20 -13 17 -5 -2 -9
-10 -7 -16 3 -13 -35 -26 -43 -14 -2 4 4 15 15 25 26 24 25 39 -5 59 -24 16
-25 15 -31 -8 -3 -14 -3 -34 1 -44 3 -11 1 -23 -5 -27 -5 -3 -10 -2 -10 2 0
23 -96 -6 -106 -32 -7 -17 -64 -21 -64 -5 0 6 12 10 26 10 23 0 25 3 20 27 -5
17 -3 29 6 34 19 13 30 11 22 -3 -5 -7 7 2 25 20 18 17 39 32 47 32 9 0 13 4
9 9 -3 5 10 8 30 6 19 -2 38 1 41 6 8 13 -48 99 -86 132 -64 58 -163 117 -227
137 -74 23 -196 36 -236 26 -33 -8 -59 -57 -40 -74 7 -7 16 -12 19 -11 4 0 12
-7 17 -16 13 -24 -9 -36 -40 -22 -16 7 -30 7 -48 -1 -14 -7 -27 -12 -28 -12
-1 0 -2 18 -2 39 -1 22 3 37 7 35 4 -3 8 2 8 11 0 13 -6 15 -32 10 -18 -4 -44
-13 -58 -20 -14 -7 -37 -18 -52 -25 -15 -7 -46 -31 -68 -54 -34 -33 -39 -42
-25 -44 10 -2 21 2 25 9 6 8 9 4 12 -12 2 -20 14 -28 64 -44 64 -21 124 -64
124 -89 0 -8 6 -16 13 -19 17 -5 -10 -37 -33 -37 -24 0 -32 11 -19 27 15 17
-1 16 -25 -2 -11 -8 -32 -15 -47 -15 -18 0 -34 -9 -48 -27 l-21 -28 6 26 c4
21 -1 30 -30 53 l-36 27 -31 -30 c-37 -37 -37 -77 -1 -74 12 2 22 -2 22 -7 0
-6 -7 -10 -15 -10 -8 0 -15 -5 -15 -12 0 -7 -12 4 -26 23 -34 45 -29 89 24
194 3 6 -4 2 -15 -8 -28 -24 -69 -103 -83 -159 -12 -45 -31 -61 -45 -38 -4 6
-10 8 -15 5 -12 -7 -58 15 -64 31 -3 7 4 16 15 19 l21 7 -21 22 c-12 12 -21
34 -21 49 0 23 4 27 28 27 l27 0 -37 33 c-43 38 -46 47 -19 47 23 0 36 16 22
25 -6 3 -8 12 -4 20 3 9 -1 15 -11 15 -25 0 -19 13 19 40 34 25 44 40 25 40
-18 0 -10 24 14 48 17 15 37 22 67 23 24 0 38 3 32 6 -8 2 -13 22 -13 44 0 33
3 39 21 39 11 0 17 5 14 10 -3 6 2 13 12 16 93 31 83 34 -134 34 l-213 0 0
-595z m784 380 c-4 -8 -12 -15 -20 -15 -8 0 -11 6 -8 15 4 8 12 15 20 15 8 0
11 -6 8 -15z m139 -21 c18 -9 39 -20 47 -24 10 -5 15 -21 15 -46 0 -35 -4 -41
-35 -56 -19 -10 -40 -25 -47 -34 -6 -9 -16 -13 -22 -9 -14 8 -14 58 0 72 7 7
9 25 5 47 -6 29 -11 35 -29 34 -20 -2 -22 -7 -18 -45 2 -25 -1 -43 -7 -43 -6
0 -17 -3 -25 -6 -22 -8 -30 26 -10 42 16 12 16 15 3 23 -13 9 -11 13 8 31 12
12 26 19 30 16 4 -2 14 -1 22 5 20 12 27 11 63 -7z m231 -92 c2 -4 -2 -15 -9
-25 -12 -16 -13 -16 -18 2 -7 26 14 44 27 23z m-380 -34 c26 -58 28 -77 12
-100 -13 -19 -16 -19 -22 -5 -3 9 -15 19 -25 22 -11 4 -27 17 -35 31 -15 22
-15 25 12 54 16 16 32 30 36 30 4 0 14 -15 22 -32z m251 -28 c-3 -5 -11 -10
-16 -10 -6 0 -7 5 -4 10 3 6 11 10 16 10 6 0 7 -4 4 -10z m125 -16 c0 -8 -4
-14 -10 -14 -5 0 -10 9 -10 21 0 11 5 17 10 14 6 -3 10 -13 10 -21z m-472 -23
c3 -8 -1 -12 -9 -9 -7 2 -15 10 -17 17 -3 8 1 12 9 9 7 -2 15 -10 17 -17z
m310 -61 c-7 -11 -17 -20 -22 -20 -5 0 -1 9 9 20 10 11 20 20 22 20 2 0 -2 -9
-9 -20z m207 0 c-3 -5 -11 -10 -16 -10 -6 0 -7 5 -4 10 3 6 11 10 16 10 6 0 7
-4 4 -10z m-296 -45 c42 -14 80 -49 81 -72 0 -7 -19 -13 -47 -15 -46 -3 -48
-4 -51 -35 -2 -24 1 -33 17 -38 18 -5 21 -14 21 -68 0 -34 -4 -67 -8 -73 -4
-6 -33 -10 -68 -10 -55 2 -65 5 -98 36 -29 28 -36 41 -36 73 0 34 2 38 15 27
8 -7 15 -20 15 -29 0 -27 35 -43 65 -29 30 13 30 12 8 89 -18 64 -41 85 -75
68 -21 -11 -68 -12 -68 0 0 16 50 62 82 76 43 19 95 19 147 0z m-113 -122 c24
-59 26 -90 7 -97 -10 -4 -19 -2 -22 5 -8 25 -58 72 -69 65 -8 -5 -12 -48 -12
-130 0 -115 1 -124 20 -129 12 -3 20 -14 20 -26 0 -21 -4 -22 -77 -19 -63 2
-78 6 -81 20 -2 9 5 19 17 23 20 6 21 14 21 136 0 71 -3 129 -6 129 -17 0 -46
-24 -59 -50 -16 -32 -22 -35 -43 -21 -11 7 -11 17 2 60 8 28 17 55 20 59 2 4
60 6 128 5 l123 -1 11 -29z m-419 -28 c16 -63 16 -64 -2 -72 -10 -3 -29 9 -54
36 -42 46 -66 51 -104 20 -93 -73 -18 -288 78 -225 34 22 34 63 -1 76 -16 7
-24 16 -22 28 3 14 16 17 81 20 77 3 77 3 77 -23 0 -16 -6 -25 -15 -25 -12 0
-15 -14 -15 -65 0 -71 -14 -90 -51 -67 -14 9 -27 8 -55 -4 -105 -44 -204 42
-204 177 0 72 23 122 73 156 28 19 43 22 116 20 l85 -2 13 -50z m808 15 c5
-19 14 -41 19 -48 5 -9 3 -20 -8 -30 -15 -15 -19 -13 -50 22 -31 33 -39 37
-78 34 -43 -3 -43 -3 -43 -43 0 -49 28 -61 46 -21 7 14 18 26 26 26 12 0 16
-9 16 -45 0 -84 -4 -105 -18 -105 -8 0 -18 11 -21 26 -5 18 -12 24 -28 22 -18
-3 -21 -10 -21 -48 0 -44 1 -45 34 -48 53 -5 78 5 101 43 21 34 43 44 54 26 3
-5 -3 -35 -13 -67 l-18 -59 -133 -3 c-74 -1 -137 1 -142 6 -12 12 0 39 21 45
15 4 17 19 19 127 1 113 0 122 -18 127 -13 4 -20 14 -20 29 l0 25 132 -3 132
-3 11 -35z m413 -19 c21 -85 -4 -110 -46 -46 -45 71 -108 72 -143 3 -35 -69
-13 -162 45 -193 31 -17 34 -17 70 0 20 10 43 27 51 38 15 21 45 17 45 -6 0
-7 -15 -29 -33 -49 -31 -33 -85 -58 -130 -58 -24 0 -88 34 -107 57 -68 82 -51
238 32 292 28 18 45 21 118 18 l85 -2 13 -54z m-1190 18 c-3 -8 -7 -3 -11 10
-4 17 -3 21 5 13 5 -5 8 -16 6 -23z m643 -72 c-8 -8 -11 -7 -11 4 0 20 13 34
18 19 3 -7 -1 -17 -7 -23z m-578 8 c-3 -9 -8 -14 -10 -11 -3 3 -2 9 2 15 9 16
15 13 8 -4z m127 5 c0 -5 -4 -10 -10 -10 -5 0 -10 5 -10 10 0 6 5 10 10 10 6
0 10 -4 10 -10z m-13 -87 c-3 -10 -5 -2 -5 17 0 19 2 27 5 18 2 -10 2 -26 0
-35z"/>
<path d="M746 714 c-21 -21 -20 -47 2 -67 30 -27 82 -19 82 13 0 18 -28 36
-39 24 -3 -4 0 -9 7 -11 23 -9 12 -24 -15 -21 -33 4 -43 37 -18 58 14 11 20
11 37 1 11 -7 23 -10 26 -6 9 9 -19 25 -45 25 -12 0 -29 -7 -37 -16z"/>
<path d="M932 679 c4 -56 24 -63 23 -7 -1 24 -6 43 -14 46 -9 3 -11 -8 -9 -39z"/>
<path d="M1368 708 c-7 -22 6 -71 20 -76 11 -3 12 0 4 14 -6 11 -8 32 -5 47 5
27 -11 39 -19 15z"/>
<path d="M868 702 c-10 -2 -18 -8 -18 -13 0 -6 9 -7 20 -4 16 5 20 2 20 -19 0
-14 -5 -26 -11 -26 -6 0 -9 7 -5 15 3 9 0 15 -10 15 -9 0 -14 -7 -12 -17 2
-12 12 -18 28 -18 21 0 26 5 28 31 3 33 -9 43 -40 36z"/>
<path d="M1180 700 c-12 -8 -11 -10 6 -10 15 0 20 -6 19 -22 -1 -13 -6 -21
-11 -18 -5 2 -8 10 -6 17 4 19 -15 16 -22 -4 -9 -23 8 -37 38 -29 28 7 36 42
14 64 -14 14 -19 15 -38 2z"/>
<path d="M1420 695 c-26 -31 13 -82 44 -56 22 18 20 48 -3 61 -25 13 -26 13
-41 -5z m40 -25 c0 -11 -6 -20 -14 -20 -18 0 -29 16 -21 30 11 18 35 11 35
-10z"/>
<path d="M977 694 c-25 -25 8 -70 43 -59 32 10 24 59 -10 63 -14 2 -29 0 -33
-4z m46 -24 c4 -14 0 -20 -12 -20 -10 0 -17 8 -17 20 0 11 6 20 12 20 6 0 14
-9 17 -20z"/>
<path d="M1061 670 c12 -34 24 -38 34 -12 6 15 8 14 16 -7 11 -28 24 -19 33
24 6 27 5 28 -8 12 -14 -18 -15 -18 -25 0 -9 16 -12 16 -22 3 -8 -11 -12 -12
-16 -2 -10 26 -21 10 -12 -18z"/>
<path d="M1250 692 c0 -7 5 -22 11 -33 7 -15 7 -24 -2 -35 -9 -11 -8 -14 4
-14 8 0 22 18 31 41 17 42 13 69 -6 36 -9 -18 -10 -18 -24 0 -9 12 -13 13 -14
5z"/>
<path d="M260 525 c0 -32 4 -45 14 -45 9 0 12 7 9 19 -4 15 1 20 24 24 l28 4
-27 2 c-40 2 -36 29 5 34 28 3 26 4 -10 5 l-43 2 0 -45z"/>
<path d="M1112 523 c3 -46 4 -48 36 -51 18 -2 32 1 32 7 0 6 -11 11 -25 11
-36 0 -33 30 3 31 l27 1 -30 7 c-38 8 -38 24 1 32 27 6 27 7 -9 8 l-38 1 3
-47z"/>
<path d="M1440 526 c0 -25 5 -46 10 -46 6 0 10 18 10 39 0 22 -4 43 -10 46 -6
4 -10 -12 -10 -39z"/>
<path d="M1480 525 c0 -27 2 -46 4 -44 8 8 10 78 3 85 -4 4 -7 -14 -7 -41z"/>
<path d="M451 536 c-6 -7 -9 -28 -7 -47 2 -26 8 -35 25 -37 22 -4 29 6 33 52
2 21 -2 30 -19 37 -14 5 -25 3 -32 -5z m34 -26 c0 -7 -6 -15 -12 -17 -8 -3
-13 4 -13 17 0 13 5 20 13 18 6 -3 12 -11 12 -18z m-5 -40 c0 -5 -4 -10 -10
-10 -5 0 -10 5 -10 10 0 6 5 10 10 10 6 0 10 -4 10 -10z"/>
<path d="M583 542 c-18 -3 -23 -10 -23 -33 0 -34 17 -40 22 -7 5 32 28 35 28
4 0 -14 5 -26 10 -26 14 0 12 46 -2 57 -7 5 -23 7 -35 5z"/>
<path d="M733 524 c-16 -25 -16 -27 2 -41 11 -7 26 -12 35 -11 19 4 26 58 8
69 -20 13 -26 11 -45 -17z m40 -31 c-3 -7 -9 -10 -14 -7 -11 6 -12 38 -2 48 9
9 22 -25 16 -41z"/>
<path d="M918 542 c-13 -2 -18 -13 -17 -35 1 -30 1 -30 8 -7 4 14 13 25 21 25
8 0 17 -11 21 -25 l7 -25 1 26 c1 30 -16 47 -41 41z"/>
<path d="M983 528 c-17 -19 -17 -21 12 -45 28 -25 28 -25 5 -18 -19 6 -22 5
-14 -5 24 -25 49 -7 52 36 3 34 0 42 -17 47 -12 3 -27 -3 -38 -15z m40 -13 c8
-18 -11 -31 -25 -17 -11 11 -3 32 12 32 4 0 10 -7 13 -15z"/>
<path d="M1292 538 c-30 -30 3 -82 39 -60 14 9 25 10 40 1 11 -6 26 -8 33 -6
15 6 19 67 5 67 -5 0 -9 -14 -9 -31 0 -19 -4 -28 -11 -23 -6 4 -9 19 -5 35 5
27 4 29 -14 19 -11 -6 -20 -17 -20 -24 0 -13 -20 -26 -41 -26 -5 0 -9 10 -9
21 0 16 5 20 20 16 24 -6 27 8 4 17 -20 8 -18 8 -32 -6z"/>
<path d="M1520 535 c-28 -34 16 -84 47 -52 10 9 12 17 6 17 -7 0 -15 -5 -18
-10 -10 -16 -25 -1 -22 20 4 25 17 38 17 17 0 -9 7 -17 15 -17 18 0 19 12 3
28 -16 16 -33 15 -48 -3z"/>
<path d="M1605 534 c-9 -9 -14 -23 -11 -31 3 -8 6 -18 7 -21 1 -4 4 4 8 17 9
34 31 39 31 7 0 -14 5 -26 10 -26 14 0 13 43 -2 58 -16 16 -23 15 -43 -4z"/>
<path d="M1686 528 c-15 -21 -14 -24 3 -41 15 -16 22 -17 40 -8 15 9 27 9 41
1 22 -12 40 -6 40 12 0 7 -5 6 -14 -1 -8 -7 -17 -8 -20 -3 -8 13 5 53 15 46 5
-3 7 -10 4 -15 -4 -5 1 -9 9 -9 21 0 20 17 -2 29 -21 11 -52 -3 -52 -24 0 -18
-39 -30 -52 -17 -15 15 -1 32 25 32 18 0 19 2 7 10 -22 14 -27 13 -44 -12z"/>
<path d="M360 510 c0 -16 5 -30 10 -30 6 0 10 12 10 26 0 31 23 28 28 -4 2
-12 7 -20 11 -17 5 2 6 16 3 30 -3 20 -10 25 -33 25 -26 0 -29 -4 -29 -30z"/>
<path d="M532 510 c0 -19 2 -27 5 -17 2 9 2 25 0 35 -3 9 -5 1 -5 -18z"/>
<path d="M645 520 c-12 -39 30 -65 55 -35 8 9 9 15 2 15 -6 0 -14 -5 -17 -10
-7 -12 -25 -4 -25 11 0 5 12 9 26 9 26 0 30 20 4 28 -7 3 -10 0 -6 -7 4 -6 2
-11 -3 -11 -6 0 -11 5 -11 10 0 18 -19 10 -25 -10z"/>
<path d="M810 510 c0 -16 5 -30 10 -30 6 0 10 11 10 24 0 13 6 27 13 29 6 3 2
6 -10 6 -19 1 -23 -4 -23 -29z"/>
<path d="M867 533 c-11 -10 -8 -53 3 -53 6 0 10 14 10 30 0 31 -2 35 -13 23z"/>
<path d="M1215 521 c3 -7 0 -20 -7 -29 -11 -13 -10 -14 11 -7 14 4 26 3 30 -4
4 -6 7 4 7 22 0 27 -4 32 -23 32 -16 0 -21 -5 -18 -14z"/>
<path d="M300 480 c0 -5 7 -10 15 -10 8 0 15 5 15 10 0 6 -7 10 -15 10 -8 0
-15 -4 -15 -10z"/>
<path d="M718 409 c-27 -15 -22 -36 12 -48 17 -5 30 -15 30 -20 0 -15 -33 -14
-48 1 -9 9 -12 8 -12 -6 0 -14 7 -17 37 -14 49 4 57 31 14 46 -42 15 -41 35 2
27 30 -6 31 -5 13 10 -23 18 -25 18 -48 4z"/>
<path d="M967 406 c-13 -10 -17 -24 -15 -48 3 -30 6 -33 41 -36 30 -3 37 0 37
14 0 14 -3 15 -12 6 -30 -30 -68 0 -48 39 12 22 30 25 48 7 7 -7 12 -8 12 -2
0 13 -21 34 -34 34 -6 0 -19 -7 -29 -14z"/>
<path d="M1083 413 c-20 -4 -23 -11 -23 -49 l0 -44 38 2 37 1 -33 4 c-38 5
-39 26 -1 32 l24 4 -23 6 c-33 8 -32 25 1 29 15 2 25 8 22 13 -4 5 -9 8 -13 8
-4 -1 -17 -4 -29 -6z"/>
<path d="M1205 406 c-12 -8 -14 -15 -7 -20 6 -3 13 -2 17 4 3 5 10 10 16 10
17 0 9 -24 -18 -52 l-27 -28 40 1 c30 1 34 2 16 8 l-24 6 21 19 c26 24 27 42
2 55 -13 7 -23 6 -36 -3z"/>
<path d="M800 365 c0 -25 5 -45 10 -45 6 0 10 20 10 45 0 25 -4 45 -10 45 -5
0 -10 -20 -10 -45z"/>
<path d="M849 407 c-7 -28 -6 -87 1 -87 6 0 10 12 10 28 l1 27 22 -27 c33 -41
47 -36 47 17 0 25 -4 45 -10 45 -5 0 -10 -11 -10 -25 0 -29 -16 -33 -25 -6 -5
15 -33 38 -36 28z"/>
<path d="M1291 396 c-7 -8 -11 -27 -9 -43 2 -22 9 -29 31 -31 20 -3 27 1 29
15 0 10 2 25 3 33 3 35 -33 52 -54 26z m37 -34 c2 -24 -1 -32 -12 -32 -12 0
-16 10 -16 36 0 45 24 42 28 -4z"/>
<path d="M1364 386 c-10 -43 -1 -61 31 -61 25 0 30 4 33 28 6 53 -51 82 -64
33z m44 -24 c2 -23 -1 -32 -12 -32 -18 0 -24 16 -18 48 6 32 26 22 30 -16z"/>
<path d="M1450 389 c-16 -28 2 -69 29 -69 26 0 40 28 32 60 -9 33 -46 39 -61
9z m45 -25 c0 -19 -5 -29 -15 -29 -16 0 -25 28 -16 51 10 25 31 10 31 -22z"/>
</g>
</svg>
